# xmcd
#
# Track frame offsets: 
#        150
#        9622
#        22245
#        40605
#        56742
#        73840
#        94000
#        113905
#        121345
#        140640
#        158372
#        176285
#        200417
#        221122
#        237280
#
# Disc length: 3263 seconds
#
# Revision: 9
# Processed by: cddbd v1.5.2PL0 Copyright (c) Steve Scherf et al.
# Submitted via: ExactAudioCopyFreeDBPlugin 1.0
#
DISCID=d10cbd0f
DTITLE=Before Dark - Daydreamin'
DYEAR=2000
DGENRE=R&B
TTITLE0=Jazzy (Interlude)
TTITLE1=How Could You
TTITLE2=Monica
TTITLE3=As Far As They Know
TTITLE4=Baby
TTITLE5=Always On My Mind
TTITLE6=It's All About You
TTITLE7=Interlude (In The Bathroom)
TTITLE8=Come Correct
TTITLE9=Tough Love
TTITLE10=Day Dreamin
TTITLE11=She
TTITLE12=Push 'N' Shove
TTITLE13=Back Around
TTITLE14=Outro
EXTD=YEAR: 2000
EXTT0=
EXTT1=
EXTT2=
EXTT3=
EXTT4=
EXTT5=
EXTT6=
EXTT7=
EXTT8=
EXTT9=
EXTT10=
EXTT11=
EXTT12=
EXTT13=
EXTT14=
PLAYORDER=
